<svg width="329" height="220" viewBox="0 0 329 220" fill="none" xmlns="http://www.w3.org/2000/svg">
<path d="M160.815 71.7176C160.461 71.7182 160.109 71.6589 159.775 71.5421L154.41 69.6822C153.883 69.4978 153.413 69.1784 153.047 68.7559C152.682 68.3333 152.433 67.8224 152.327 67.2739L151.252 61.6897C151.147 61.1406 151.187 60.5734 151.371 60.0451C151.554 59.5169 151.873 59.0462 152.296 58.6804L156.591 54.9605C157.014 54.5947 157.526 54.3463 158.076 54.2401C158.625 54.1339 159.193 54.1735 159.723 54.3552L165.092 56.2195C165.621 56.4025 166.092 56.7213 166.458 57.1441C166.825 57.5668 167.074 58.0785 167.18 58.6278L168.25 64.2076C168.355 64.757 168.314 65.3241 168.132 65.8528C167.949 66.3814 167.632 66.8532 167.211 67.2213L162.912 70.9411C162.329 71.4442 161.585 71.7199 160.815 71.7176ZM155.726 66.4273L160.745 68.1819L164.763 64.7077L163.758 59.4919L158.74 57.7373L154.726 61.2159L155.726 66.4273Z" fill="#F5F5F5"/>
<path d="M223.474 55.5089C223.12 55.5095 222.769 55.4501 222.435 55.3334L219.715 54.3903C219.187 54.2066 218.717 53.8875 218.351 53.4648C217.985 53.0422 217.737 52.5308 217.631 51.982L217.087 49.157C216.982 48.6083 217.023 48.0416 217.205 47.5136C217.388 46.9855 217.706 46.5146 218.127 46.1477L220.32 44.2615C220.743 43.896 221.255 43.6481 221.804 43.5426C222.353 43.4371 222.92 43.4778 223.448 43.6605L226.163 44.6036C226.692 44.7866 227.163 45.1055 227.53 45.5282C227.896 45.9509 228.145 46.4626 228.251 47.0119L228.795 49.8369C228.901 50.386 228.86 50.9532 228.677 51.4814C228.493 52.0097 228.174 52.4804 227.751 52.8462L225.558 54.7324C224.978 55.2308 224.239 55.5061 223.474 55.5089ZM221.04 51.1222L223.408 51.9425L225.299 50.3019L224.825 47.8454L222.461 47.0251L220.566 48.692L221.04 51.1222Z" fill="#F5F5F5"/>
<path d="M298.592 96.8444C298.245 96.8419 297.903 96.7619 297.591 96.61C297.279 96.4582 297.005 96.2385 296.789 95.967L295.258 94.0544C295.005 93.7381 294.839 93.361 294.778 92.9607C294.716 92.5605 294.761 92.1511 294.907 91.7734L295.784 89.4923C295.931 89.1151 296.174 88.7832 296.49 88.5299C296.806 88.2766 297.183 88.1108 297.583 88.0491L300.004 87.6762C300.405 87.6155 300.815 87.661 301.193 87.808C301.571 87.955 301.903 88.1984 302.158 88.5141L303.689 90.4267C303.942 90.743 304.107 91.1201 304.169 91.5204C304.23 91.9206 304.186 92.33 304.04 92.7077L303.162 94.9888C303.016 95.3668 302.772 95.6993 302.455 95.9527C302.138 96.2062 301.761 96.3715 301.36 96.432L298.938 96.8049C298.824 96.8269 298.708 96.8401 298.592 96.8444ZM300.368 89.4177H300.285L297.863 89.7906C297.766 89.805 297.675 89.8446 297.598 89.9054C297.521 89.9662 297.461 90.0461 297.425 90.1372L296.547 92.4182C296.512 92.5089 296.501 92.6073 296.515 92.7036C296.53 92.7999 296.57 92.8906 296.631 92.9665L298.162 94.8791C298.224 94.9541 298.304 95.012 298.394 95.0473C298.485 95.0826 298.583 95.0942 298.679 95.0809L301.101 94.7081C301.198 94.6945 301.29 94.6552 301.367 94.5943C301.444 94.5334 301.504 94.4531 301.539 94.3615L302.417 92.0804C302.452 91.9897 302.462 91.8914 302.448 91.7953C302.433 91.6992 302.394 91.6085 302.333 91.5321L300.802 89.6195C300.749 89.5562 300.683 89.5053 300.608 89.4704C300.533 89.4356 300.451 89.4176 300.368 89.4177Z" fill="#E0E0E0"/>
<path d="M25.3111 115.909C24.8661 115.908 24.4269 115.808 24.0254 115.616C23.624 115.424 23.2705 115.145 22.9905 114.799L19.3935 110.307C19.0706 109.9 18.8602 109.415 18.7833 108.9C18.7063 108.386 18.7654 107.861 18.9548 107.377L21.056 102.012C21.2454 101.527 21.5586 101.101 21.9643 100.776C22.3699 100.45 22.8538 100.236 23.3678 100.156L29.0705 99.279C29.5852 99.2017 30.1113 99.2606 30.5962 99.45C31.0811 99.6393 31.5079 99.9524 31.8341 100.358L35.4004 104.841C35.7236 105.249 35.9342 105.735 36.0112 106.25C36.0882 106.765 36.0288 107.291 35.8391 107.776L33.7774 113.145C33.5882 113.631 33.2746 114.059 32.8681 114.385C32.4616 114.712 31.9764 114.925 31.4612 115.005L25.7585 115.883C25.6104 115.904 25.4607 115.913 25.3111 115.909ZM21.8281 108.452L25.3374 112.838L30.9085 111.987L32.9527 106.723L29.4433 102.337L23.8723 103.192L21.8281 108.452Z" fill="#E0E0E0"/>
<path d="M39.8657 76.5912H36.4749C36.0708 76.5925 35.6736 76.4878 35.3226 76.2877C34.9716 76.0876 34.6792 75.799 34.4745 75.4507L32.7769 72.516C32.5765 72.1637 32.4712 71.7654 32.4712 71.3601C32.4712 70.9548 32.5765 70.5565 32.7769 70.2042L34.4745 67.2695C34.6772 66.9185 34.9688 66.627 35.32 66.4245C35.6712 66.2219 36.0695 66.1155 36.4749 66.1158H39.8657C40.2711 66.1155 40.6694 66.2219 41.0206 66.4245C41.3718 66.627 41.6634 66.9185 41.8661 67.2695L43.5637 70.1867C43.7641 70.539 43.8694 70.9373 43.8694 71.3426C43.8694 71.7478 43.7641 72.1462 43.5637 72.4984L41.8661 75.4507C41.661 75.7987 41.3686 76.0871 41.0177 76.2871C40.6668 76.4872 40.2697 76.592 39.8657 76.5912ZM36.4749 67.853C36.3774 67.8532 36.2816 67.8788 36.197 67.9272C36.1124 67.9757 36.0418 68.0453 35.9923 68.1293L34.2991 71.064C34.2497 71.1485 34.2237 71.2447 34.2237 71.3426C34.2237 71.4404 34.2497 71.5366 34.2991 71.6211L35.9923 74.5733C36.0416 74.6579 36.112 74.7282 36.1966 74.7774C36.2811 74.8266 36.377 74.853 36.4749 74.8541H39.8657C39.9651 74.8545 40.0628 74.8288 40.149 74.7795C40.2353 74.7303 40.307 74.6591 40.3571 74.5733L42.0503 71.6387C42.0996 71.5541 42.1256 71.458 42.1256 71.3601C42.1256 71.2622 42.0996 71.1661 42.0503 71.0815L40.3571 68.1293C40.3075 68.0453 40.237 67.9757 40.1524 67.9272C40.0678 67.8788 39.972 67.8532 39.8745 67.853H36.4749Z" fill="#EBEBEB"/>
<path d="M97.7263 43.406L91.1112 39.2431L82.9915 25.5391L71.6958 18.6257L69.5112 20.9901L70.6562 22.5343L74.2225 27.3157L88.3783 46.3188L94.1511 49.4947L97.7263 43.406Z" fill="#EBEBEB"/>
<path d="M89.4133 53.2585L87.5183 46.9505L66.7167 23.1835L63.9443 24.8241L68.3354 37.3218L80.4119 49.1833L83.1185 56.588L89.4133 53.2585Z" fill="#EBEBEB"/>
<path d="M100.683 44.5817C100.683 44.5817 124.173 57.4741 128.906 61.8257C133.64 66.1772 144.698 84.2985 143.575 86.6147C142.452 88.9309 141.593 89.2467 139.044 87.0007C136.495 84.7548 128.257 72.3405 126.046 70.3314C123.835 68.3223 96.3135 52.2013 96.3135 52.2013L100.683 44.5817Z" fill="#E0E0E0"/>
<path d="M84.7547 50.1045C88.8636 50.1045 92.1945 46.7736 92.1945 42.6647C92.1945 38.5558 88.8636 35.2249 84.7547 35.2249C80.6459 35.2249 77.3149 38.5558 77.3149 42.6647C77.3149 46.7736 80.6459 50.1045 84.7547 50.1045Z" fill="#EBEBEB"/>
<path d="M82.9081 49.8632C83.5072 49.976 84.1146 50.039 84.7242 50.0518C85.4377 50.0543 86.1475 49.9493 86.8298 49.7404C88.472 49.2598 89.8956 48.2223 90.8562 46.8063C91.8168 45.3902 92.2544 43.6839 92.0938 41.9803C92.0192 41.2693 91.8357 40.5739 91.5498 39.9186C91.4142 39.5822 91.2559 39.2554 91.0761 38.9404C90.8836 38.6223 90.6681 38.3188 90.4312 38.0323C89.4523 36.8182 88.1098 35.9499 86.601 35.5552C85.0921 35.1604 83.4964 35.2599 82.0483 35.839C81.7051 35.977 81.3711 36.1368 81.0481 36.3172C80.7422 36.5067 80.4491 36.7162 80.1708 36.9445C79.6155 37.3817 79.1316 37.9027 78.7364 38.4886C77.9907 39.569 77.547 40.829 77.4511 42.1383C77.3799 43.1784 77.5287 44.2218 77.8877 45.2006C78.2468 46.1794 78.8079 47.0716 79.5347 47.819C80.0284 48.3399 80.5978 48.7836 81.2236 49.135C81.7635 49.4194 82.3253 49.6599 82.9037 49.8544C82.8644 49.8594 82.8246 49.8594 82.7853 49.8544L82.4431 49.7579C82.2567 49.7106 82.0748 49.6475 81.8991 49.5693C81.6529 49.476 81.4139 49.3646 81.1841 49.2359C80.536 48.9012 79.944 48.4676 79.4295 47.9506C78.6741 47.1972 78.0878 46.2915 77.7096 45.2938C77.3314 44.2962 77.17 43.2295 77.2361 42.1646C77.3313 40.8178 77.7858 39.5212 78.5521 38.4096C78.9591 37.8053 79.4562 37.2668 80.026 36.8129C80.6101 36.3275 81.2694 35.9408 81.9781 35.6679C83.4688 35.0701 85.1119 34.9656 86.6663 35.3698C88.2208 35.774 89.6048 36.6656 90.6155 37.9139C90.8559 38.2115 91.0757 38.5252 91.2735 38.8527C91.4595 39.1785 91.6222 39.5171 91.7604 39.866C92.0392 40.5369 92.2109 41.2474 92.2692 41.9716C92.3898 43.2264 92.1903 44.4914 91.6894 45.6482C91.1884 46.8051 90.4024 47.816 89.4047 48.5867C88.646 49.179 87.7787 49.6171 86.8517 49.8763C86.1569 50.0797 85.4346 50.1729 84.711 50.1527C84.4467 50.1538 84.1828 50.1347 83.9214 50.0957C83.7278 50.0821 83.5356 50.0528 83.3467 50.008L83.0002 49.9246C82.9668 49.9085 82.9358 49.8878 82.9081 49.8632Z" fill="#E0E0E0"/>
<path d="M83.7022 46.7311C82.8972 46.5229 82.1721 46.0805 81.6186 45.4601C81.0652 44.8396 80.7082 44.0689 80.5929 43.2455C80.4775 42.4221 80.6091 41.5829 80.9708 40.8343C81.3326 40.0856 81.9083 39.4611 82.625 39.0398C83.3418 38.6184 84.1675 38.4192 84.9976 38.4672C85.8276 38.5153 86.6248 38.8085 87.2882 39.3098C87.9515 39.811 88.4513 40.4978 88.7242 41.2832C88.9972 42.0686 89.031 42.9173 88.8214 43.7219C88.5408 44.7993 87.8441 45.7213 86.8843 46.2855C85.9245 46.8497 84.78 47.01 83.7022 46.7311Z" fill="#E0E0E0"/>
<path d="M83.7017 46.7312C83.7017 46.7005 84.0658 46.8189 84.7238 46.8189C85.5113 46.8117 86.2807 46.5823 86.9435 46.157C87.6062 45.7317 88.1354 45.1279 88.47 44.415C88.7768 43.7488 88.9009 43.013 88.8297 42.2831C88.7499 41.4784 88.4339 40.7154 87.9217 40.0897C87.3746 39.4138 86.6252 38.9311 85.7836 38.7124C84.942 38.4937 84.0524 38.5506 83.2455 38.8746C82.8624 39.0173 82.5053 39.2218 82.1883 39.48C81.8765 39.7286 81.6056 40.0247 81.3856 40.3573C80.9688 40.96 80.7191 41.6623 80.6618 42.3927C80.6135 43.0304 80.7157 43.6705 80.96 44.2615C81.3138 45.1286 81.9488 45.8516 82.763 46.3144C83.0671 46.4788 83.3805 46.6252 83.7017 46.7531C83.3573 46.6926 83.0253 46.5755 82.7191 46.4065C81.8635 45.9589 81.1893 45.2288 80.8109 44.3404C80.5459 43.7271 80.4301 43.0595 80.4731 42.3927C80.523 41.6248 80.7774 40.8841 81.2101 40.2477C81.4347 39.8978 81.7113 39.5842 82.0304 39.3177C82.3644 39.0416 82.7406 38.8209 83.1446 38.6641C83.9957 38.3196 84.9351 38.2581 85.8238 38.4888C86.7126 38.7195 87.5035 39.23 88.0796 39.945C88.6254 40.6038 88.9628 41.41 89.0491 42.2611C89.1176 43.0277 88.9798 43.7986 88.6499 44.494C88.3623 45.0961 87.937 45.622 87.4084 46.0293C86.6441 46.6211 85.6989 46.931 84.7326 46.9066C84.3816 46.9063 84.0331 46.847 83.7017 46.7312Z" fill="#E0E0E0"/>
<path d="M96.1014 43.1569L93.0615 48.4476C92.1708 49.9979 92.7055 51.9767 94.2558 52.8674L94.541 53.0313C96.0913 53.9221 98.0701 53.3874 98.9608 51.8371L102.001 46.5464C102.891 44.9961 102.357 43.0173 100.806 42.1266L100.521 41.9627C98.9709 41.0719 96.9921 41.6066 96.1014 43.1569Z" fill="#EBEBEB"/>
<path d="M93.0587 48.4507C92.877 48.8413 92.7543 49.2567 92.6946 49.6834C92.6493 50.1847 92.7167 50.6898 92.892 51.1617C93.0009 51.4521 93.1484 51.7266 93.3307 51.9776C93.5449 52.2531 93.8027 52.4917 94.0939 52.6839C94.4134 52.8993 94.7582 53.0746 95.1204 53.2059C95.7536 53.4203 96.4387 53.4266 97.0756 53.2237C97.7126 53.0209 98.2679 52.6196 98.6605 52.0785C99.6694 50.3984 100.735 48.4727 101.885 46.4943C102.147 46.0252 102.285 45.4966 102.285 44.9589C102.285 44.4213 102.147 43.8926 101.885 43.4236C101.652 42.9732 101.311 42.5874 100.893 42.3006C100.488 42.0156 100.03 41.8129 99.5466 41.704C99.0985 41.6131 98.636 41.6209 98.1913 41.727C97.7466 41.8331 97.3304 42.0348 96.9716 42.3182C96.2829 42.8402 95.9802 43.6342 95.5766 44.2746L93.7693 47.3453L93.2693 48.1744C93.2161 48.2741 93.1529 48.3682 93.0806 48.4551C93.1242 48.3499 93.174 48.2474 93.2298 48.148C93.3482 47.9375 93.5017 47.6523 93.6948 47.3014C94.1334 46.5469 94.7081 45.4941 95.4494 44.2L96.0285 43.1736C96.242 42.7902 96.5263 42.4508 96.8663 42.1734C97.2423 41.8711 97.6794 41.6542 98.1475 41.5375C98.6156 41.4209 99.1034 41.4073 99.5773 41.4979C100.084 41.6085 100.564 41.8171 100.99 42.112C101.457 42.4042 101.842 42.8103 102.108 43.292C102.395 43.796 102.546 44.3659 102.546 44.9458C102.546 45.5257 102.395 46.0956 102.108 46.5995C100.955 48.5867 99.9151 50.4817 98.8579 52.1969C98.5669 52.5864 98.1951 52.9084 97.7681 53.1409C97.3411 53.3733 96.8689 53.5107 96.3838 53.5436C95.9452 53.5689 95.5058 53.5093 95.0897 53.3682C94.7158 53.2247 94.3608 53.0361 94.0325 52.8067C93.7284 52.602 93.4602 52.3485 93.2385 52.0566C93.0533 51.7853 92.9057 51.4902 92.7999 51.1792C92.6529 50.7816 92.5873 50.3585 92.6069 49.935C92.6265 49.5115 92.7309 49.0963 92.9139 48.7139C92.9547 48.6223 93.0031 48.5342 93.0587 48.4507Z" fill="#E0E0E0"/>
<path d="M83.9917 60.3342C83.9917 60.3342 92.8922 85.6102 96.4191 90.9882C99.946 96.3663 116.023 110.219 118.488 109.491C120.954 108.763 121.388 107.96 119.607 105.105C117.826 102.249 106.886 92.0805 105.271 89.5669C103.657 87.0534 92.1948 57.2811 92.1948 57.2811L83.9917 60.3342Z" fill="#E0E0E0"/>
<path d="M89.0469 53.4474L83.3322 55.5863C81.6577 56.2131 80.8084 58.0786 81.4351 59.7531L81.5504 60.0612C82.1772 61.7357 84.0427 62.5851 85.7172 61.9583L91.4319 59.8194C93.1064 59.1927 93.9557 57.3272 93.329 55.6527L93.2137 55.3446C92.587 53.6701 90.7214 52.8207 89.0469 53.4474Z" fill="#EBEBEB"/>
<path d="M89.0491 53.4428C89.1496 53.3904 89.2555 53.3492 89.365 53.3199C89.68 53.2301 90.0069 53.1887 90.3344 53.1971C90.8539 53.2144 91.3619 53.3542 91.8171 53.6051C92.0997 53.7673 92.3593 53.9664 92.5892 54.1973C92.8398 54.4646 93.047 54.7695 93.2033 55.1009C93.3766 55.4622 93.5034 55.8439 93.5806 56.2371C93.6575 56.6736 93.6456 57.1212 93.5455 57.5531C93.432 58.0284 93.2162 58.4732 92.9132 58.8566C92.6101 59.2399 92.2271 59.5526 91.7908 59.7727C89.9309 60.5228 87.8911 61.2554 85.7416 62.0713C85.1975 62.2719 84.611 62.3288 84.0386 62.2366C83.4661 62.1444 82.9271 61.9061 82.4735 61.5449C82.0414 61.1951 81.7036 60.7427 81.4909 60.2289C81.2663 59.7559 81.1381 59.243 81.1137 58.7199C81.0975 58.2339 81.1881 57.7503 81.3791 57.3031C81.5701 56.856 81.8568 56.4561 82.2191 56.1318C82.5481 55.8419 82.9292 55.6172 83.3421 55.4694L84.4475 55.0614L87.7902 53.8507L88.7026 53.5305C88.8076 53.4884 88.9163 53.4561 89.0272 53.434C88.9306 53.4925 88.8276 53.5396 88.7201 53.5744L87.8428 53.9341L84.5265 55.215C83.8378 55.5089 82.9955 55.68 82.3682 56.2722C82.0306 56.5809 81.764 56.9593 81.5867 57.3812C81.4095 57.803 81.3259 58.2583 81.3418 58.7155C81.3735 59.2103 81.5001 59.6943 81.7146 60.1412C81.9153 60.6157 82.2321 61.032 82.6358 61.3519C83.0591 61.6887 83.5621 61.9105 84.0962 61.9958C84.6304 62.0812 85.1775 62.0271 85.6846 61.8388C87.8209 61.0273 89.8958 60.286 91.7206 59.5665C92.3158 59.2648 92.8 58.782 93.1035 58.1877C93.4069 57.5934 93.5141 56.9181 93.4095 56.259C93.337 55.8787 93.2176 55.5089 93.0542 55.158C92.9123 54.8368 92.7198 54.5406 92.4839 54.2806C92.269 54.0549 92.024 53.8601 91.7557 53.7016C91.3207 53.4474 90.8327 53.2973 90.33 53.2629C89.8964 53.2572 89.4644 53.3178 89.0491 53.4428Z" fill="#E0E0E0"/>
<path d="M313.542 198.922C313.542 198.984 246.671 199.036 164.202 199.036C81.7326 199.036 14.8491 198.984 14.8491 198.922C14.8491 198.861 81.7063 198.808 164.202 198.808C246.698 198.808 313.542 198.861 313.542 198.922Z" fill="#263238"/>
<path d="M38.1641 148.739C38.2825 148.37 51.9514 103.688 51.9514 103.688L51.6092 98.1385L55.1843 92.2516L59.6236 93.7211L59.0183 100.301L55.8599 105.1L42.1121 150.024L38.1641 148.739Z" fill="#E0E0E0"/>
<path d="M38.1641 148.739L38.4273 148.813L39.1862 149.05L42.1121 149.967L42.0638 149.993C44.2878 142.707 49.429 125.845 55.7634 105.083L58.9174 100.288V100.336C59.1104 98.235 59.3166 96.0021 59.5227 93.7562L59.6017 93.8746L59.2332 93.7562L55.1624 92.4095L55.294 92.3612L51.7189 98.2481V98.1823C51.8329 100.074 51.9455 101.924 52.0566 103.731V103.771C48.0604 116.751 44.5993 127.994 42.1384 135.995C40.9013 140 39.91 143.19 39.23 145.387C38.8922 146.484 38.6247 147.331 38.4448 147.91L38.2386 148.563L38.1641 148.787C38.179 148.714 38.198 148.642 38.2211 148.572C38.265 148.418 38.3264 148.203 38.4097 147.927C38.5852 147.348 38.8484 146.506 39.1642 145.418C39.8266 143.225 40.7917 140.031 42.0024 136.03C44.4502 128.003 47.8805 116.729 51.8461 103.705V103.745C51.732 101.937 51.6165 100.088 51.4995 98.1955V98.1604V98.1297L55.0747 92.2428L55.1185 92.1638L55.2063 92.1945L59.2815 93.5368L59.6456 93.6597L59.7333 93.686V93.7781C59.5271 96.0372 59.321 98.2701 59.1236 100.358V100.389V100.411L55.9695 105.21V105.179C49.5694 125.897 44.3844 142.738 42.1384 150.024V150.063H42.0989L39.1686 149.094L38.4273 148.844L38.1641 148.739Z" fill="#263238"/>
<path d="M34.8695 150.901L28.7281 159.201L20.1434 190.346C20.1434 190.346 18.9108 196.698 25.9251 198.501C33.8211 200.528 35.6196 194.492 35.6196 194.492L43.9543 164.079L43.8665 153.533L45.9239 151.213C46.0169 151.105 46.0821 150.975 46.114 150.836C46.1458 150.697 46.1432 150.553 46.1065 150.415C46.0698 150.277 46 150.15 45.9032 150.045C45.8064 149.941 45.6855 149.861 45.551 149.813L35.6898 146.559C35.5527 146.516 35.4072 146.507 35.2661 146.534C35.125 146.56 34.9925 146.621 34.8804 146.711C34.7682 146.8 34.6797 146.916 34.6228 147.048C34.5658 147.18 34.5421 147.323 34.5536 147.467L34.8695 150.901Z" fill="#B8B0E2"/>
<path d="M43.9193 153.897C43.8974 153.959 41.8312 153.358 39.3045 152.555C36.7778 151.752 34.738 151.05 34.7599 150.989C34.7819 150.928 36.8436 151.533 39.3747 152.336C41.9058 153.138 43.9368 153.836 43.9193 153.897Z" fill="#263238"/>
<path d="M43.972 164.083C43.7641 164.07 43.5582 164.035 43.3578 163.978C42.963 163.895 42.4015 163.759 41.7041 163.583C40.3091 163.237 38.3965 162.706 36.3129 162.039C34.2292 161.372 32.3649 160.697 31.0181 160.175C30.3514 159.912 29.8118 159.692 29.4433 159.534C29.2477 159.464 29.0596 159.374 28.8818 159.267C29.0862 159.308 29.2861 159.37 29.4784 159.451L31.0752 160.021C32.4263 160.504 34.295 161.157 36.3787 161.82C38.4623 162.482 40.3661 163.039 41.7435 163.43L43.3798 163.89C43.5827 163.936 43.7809 164.001 43.972 164.083Z" fill="#263238"/>
<g opacity="0.3">
<path d="M32.4262 162.503L32.2115 162.44C31.444 162.216 30.6403 162.657 30.4165 163.425L22.8147 189.488C22.5908 190.255 23.0316 191.059 23.7991 191.283L24.0138 191.345C24.7814 191.569 25.585 191.128 25.8089 190.361L33.4106 164.298C33.6345 163.53 33.1938 162.727 32.4262 162.503Z" fill="black"/>
</g>
<g opacity="0.3">
<path d="M36.8276 163.93L36.6128 163.867C35.8453 163.643 35.0417 164.084 34.8178 164.852L27.2161 190.915C26.9922 191.682 27.4329 192.486 28.2004 192.71L28.4152 192.772C29.1827 192.996 29.9864 192.556 30.2102 191.788L37.812 165.725C38.0358 164.957 37.5951 164.154 36.8276 163.93Z" fill="black"/>
</g>
<g opacity="0.3">
<path d="M40.7969 165.243L40.5824 165.179C39.8158 164.952 39.0104 165.39 38.7834 166.156L31.0772 192.189C30.8503 192.956 31.2878 193.761 32.0544 193.988L32.2689 194.051C33.0355 194.278 33.8409 193.841 34.0679 193.074L41.7741 167.042C42.001 166.275 41.5635 165.47 40.7969 165.243Z" fill="black"/>
</g>
<path d="M55.8291 105.104C55.1582 104.992 54.5021 104.805 53.8726 104.547C53.219 104.364 52.589 104.104 51.9951 103.775C52.6639 103.891 53.3183 104.077 53.9472 104.332C54.602 104.517 55.2334 104.776 55.8291 105.104Z" fill="#263238"/>
<path d="M59.6324 93.7211C59.5996 93.93 59.5482 94.1355 59.4789 94.3353C59.3517 94.7739 59.185 95.3266 58.9788 96.011L57.2241 101.714L57.189 101.823L57.0794 101.788L55.0571 101.082L52.9778 100.354L52.877 100.319L52.9077 100.218C53.5393 97.963 54.0964 95.9847 54.5088 94.5151C54.7106 93.8352 54.8729 93.2737 55.0001 92.8526C55.0516 92.6487 55.1191 92.4493 55.2019 92.256C55.1779 92.4655 55.1353 92.6725 55.0747 92.8745L54.636 94.5546C54.2456 96.0154 53.7192 97.9981 53.1138 100.257L53.0436 100.121L55.1273 100.849L57.1452 101.556L57.0004 101.63L58.8428 95.9671C59.0709 95.2872 59.2815 94.7344 59.4043 94.3133C59.4635 94.1099 59.5398 93.9117 59.6324 93.7211Z" fill="#263238"/>
<path d="M189.021 49.0956C188.667 49.0962 188.316 49.0369 187.982 48.9202L182.608 47.0602C182.081 46.8758 181.611 46.5564 181.245 46.1339C180.88 45.7114 180.631 45.2004 180.524 44.6519L179.45 39.0677C179.344 38.5186 179.385 37.9514 179.569 37.4232C179.752 36.895 180.071 36.4243 180.494 36.0585L184.793 32.3386C185.216 31.9735 185.727 31.7258 186.276 31.6204C186.825 31.5149 187.392 31.5553 187.92 31.7376L193.29 33.5975C193.818 33.7813 194.289 34.1004 194.655 34.523C195.022 34.9456 195.271 35.4569 195.378 36.0058L196.452 41.5901C196.556 42.1391 196.514 42.7056 196.331 43.2335C196.147 43.7613 195.83 44.2321 195.408 44.5993L191.11 48.3192C190.529 48.8203 189.788 49.0959 189.021 49.0956ZM183.933 43.8053L188.956 45.56L192.969 42.0857L191.965 36.8481L186.947 35.0934L182.924 38.6027L183.933 43.8053Z" fill="#E0E0E0"/>
<path d="M183.933 43.8053C183.896 43.6918 183.867 43.576 183.845 43.4587L183.626 42.4279C183.437 41.5023 183.187 40.1994 182.849 38.6071C182.846 38.5921 182.847 38.5765 182.851 38.5619C182.856 38.5473 182.864 38.5341 182.876 38.5237L186.876 35.0144C186.892 35.0059 186.91 35.0015 186.929 35.0015C186.947 35.0015 186.965 35.0059 186.981 35.0144L192 36.7691L192.079 36.8568V36.9314V37.0191L192.114 37.1902L192.18 37.5323C192.224 37.7561 192.263 37.971 192.307 38.2079C192.395 38.6466 192.478 39.0852 192.561 39.5239C192.728 40.4012 192.89 41.2435 193.044 42.055C193.048 42.0734 193.046 42.0925 193.04 42.1102C193.034 42.128 193.023 42.1437 193.009 42.1559L189.008 45.6214C188.995 45.6287 188.981 45.6325 188.966 45.6325C188.952 45.6325 188.937 45.6287 188.925 45.6214L185.253 44.3054L184.266 43.9369C184.152 43.8997 184.04 43.8542 183.933 43.8009C184.058 43.8271 184.181 43.8623 184.301 43.9062L185.315 44.2308L188.982 45.4591H188.898L192.899 41.9497L192.864 42.055C192.706 41.2391 192.539 40.3968 192.373 39.5239C192.289 39.0852 192.202 38.6466 192.114 38.2079C192.07 37.9842 192.03 37.7692 191.987 37.5323L191.921 37.1902L191.886 37.0191V36.9314V36.8875V36.8568C191.886 36.8568 192.026 37.0191 191.956 36.9401L186.942 35.1855H187.047L183.016 38.6466L183.047 38.5632C183.332 40.1512 183.569 41.4453 183.735 42.3708C183.81 42.8095 183.871 43.1561 183.915 43.4193C183.933 43.5471 183.939 43.6763 183.933 43.8053Z" fill="#263238"/>
<path d="M189.022 49.0957C189.022 49.0957 189.21 49.0957 189.566 49.0255C190.078 48.928 190.558 48.7066 190.965 48.3806L195.33 44.5598C195.807 44.1475 196.148 43.5999 196.308 42.9894C196.394 42.6678 196.429 42.3349 196.413 42.0024C196.374 41.6557 196.316 41.3116 196.238 40.9715C195.961 39.5547 195.667 38.0456 195.36 36.4577C195.306 36.0604 195.198 35.6724 195.04 35.304C194.87 34.9323 194.626 34.5985 194.325 34.322C194.024 34.0455 193.67 33.8321 193.285 33.6941L192.048 33.2554L189.508 32.3781L188.192 31.9394C187.776 31.7639 187.329 31.6701 186.876 31.663C186.422 31.6625 185.973 31.7613 185.56 31.9526C185.16 32.1536 184.793 32.4155 184.473 32.729L182.442 34.4837L180.481 36.1813C179.884 36.7283 179.525 37.4872 179.481 38.2957C179.474 38.6872 179.518 39.0779 179.612 39.4581C179.687 39.8486 179.757 40.2302 179.832 40.6075C179.972 41.362 180.112 42.0901 180.244 42.8008C180.375 43.5114 180.503 44.1957 180.639 44.8362C180.802 45.4435 181.145 45.9876 181.621 46.3979C181.843 46.587 182.089 46.7449 182.354 46.8672C182.613 46.9813 182.889 47.0646 183.143 47.1611L184.613 47.6788L186.964 48.5122C187.451 48.7085 187.949 48.8741 188.456 49.0079C188.807 49.0737 189 49.0693 189 49.0781C188.816 49.1004 188.63 49.1004 188.447 49.0781C187.934 48.96 187.43 48.8061 186.938 48.6175L184.595 47.8147L183.122 47.3147C182.858 47.2225 182.591 47.1436 182.314 47.0251C182.035 46.8989 181.773 46.7351 181.538 46.5382C181.032 46.1106 180.667 45.5404 180.49 44.902C180.34 44.2352 180.222 43.5597 180.082 42.8534C179.941 42.1472 179.801 41.4146 179.643 40.6601C179.567 40.2887 179.492 39.907 179.419 39.5152C179.32 39.1194 179.273 38.7124 179.279 38.3045C179.324 37.4383 179.707 36.6243 180.345 36.0365L182.301 34.3345L184.332 32.5799C184.508 32.4307 184.67 32.2816 184.859 32.1412C185.051 31.9983 185.256 31.8749 185.473 31.7727C185.91 31.5698 186.386 31.465 186.868 31.4656C187.345 31.4731 187.817 31.5714 188.258 31.7552L189.574 32.1938L192.114 33.0712L193.351 33.5098C193.769 33.6588 194.152 33.8901 194.479 34.1898C194.799 34.4836 195.057 34.8386 195.237 35.2338C195.403 35.6188 195.515 36.0247 195.571 36.4401C195.863 38.0339 196.148 39.54 196.426 40.9584C196.505 41.3069 196.562 41.6599 196.597 42.0156C196.623 42.5206 196.531 43.0246 196.33 43.4886C196.13 43.9526 195.825 44.3642 195.439 44.6914L191.026 48.4596C190.601 48.7841 190.102 48.9981 189.574 49.0825C189.391 49.1095 189.206 49.114 189.022 49.0957Z" fill="#263238"/>
<path d="M151.634 39.9626C151.286 39.9617 150.943 39.8824 150.63 39.7305C150.317 39.5786 150.042 39.358 149.827 39.0853L148.296 37.1771C148.043 36.8598 147.878 36.482 147.816 36.0811C147.754 35.6801 147.799 35.2701 147.945 34.8916L148.822 32.6105C148.97 32.233 149.214 31.901 149.53 31.6477C149.847 31.3944 150.224 31.2287 150.625 31.1673L153.042 30.7945C153.443 30.7338 153.853 30.7792 154.231 30.9262C154.609 31.0732 154.941 31.3166 155.196 31.6323L156.727 33.5449C156.98 33.8613 157.145 34.2384 157.207 34.6386C157.268 35.0389 157.224 35.4483 157.078 35.826L156.2 38.1114C156.055 38.4892 155.813 38.8223 155.499 39.0778C155.185 39.3333 154.81 39.5022 154.411 39.5678L151.989 39.9363C151.872 39.954 151.753 39.9628 151.634 39.9626ZM153.389 32.536H153.305L150.901 32.9001C150.804 32.9145 150.713 32.9541 150.636 33.0149C150.559 33.0757 150.499 33.1556 150.463 33.2466L149.585 35.5321C149.551 35.6229 149.54 35.7211 149.555 35.8172C149.569 35.9134 149.609 36.004 149.669 36.0804L151.2 37.9886C151.261 38.0642 151.341 38.1226 151.432 38.158C151.523 38.1934 151.621 38.2045 151.717 38.1904L154.139 37.8175C154.236 37.8035 154.328 37.7641 154.405 37.7032C154.482 37.6424 154.541 37.5623 154.577 37.471L155.455 35.1899C155.49 35.0993 155.501 35.0008 155.487 34.9045C155.472 34.8082 155.432 34.7175 155.371 34.6416L153.84 32.7334C153.787 32.6706 153.72 32.6204 153.645 32.5863C153.57 32.5521 153.489 32.535 153.406 32.536H153.389Z" fill="#E0E0E0"/>
<path d="M153.406 32.536C153.468 32.5167 153.533 32.5167 153.595 32.536C153.671 32.5566 153.741 32.5941 153.801 32.6456C153.875 32.7192 153.946 32.7968 154.012 32.8781L155.257 34.374L155.459 34.624C155.535 34.7272 155.578 34.8512 155.582 34.9793C155.579 35.1056 155.549 35.2298 155.494 35.3434C155.455 35.4531 155.411 35.5628 155.371 35.6768C155.196 36.1155 155.012 36.6112 154.819 37.12C154.77 37.2472 154.722 37.3744 154.67 37.5061C154.612 37.6645 154.496 37.7948 154.345 37.8701C154.204 37.9228 154.056 37.9567 153.906 37.971L153.468 38.0412C152.875 38.129 152.296 38.2298 151.638 38.3132C151.544 38.3134 151.45 38.2936 151.364 38.2551C151.278 38.2165 151.201 38.1601 151.138 38.0895L150.849 37.7254L150.283 37.0235L149.743 36.3392L149.607 36.1725C149.555 36.111 149.514 36.0413 149.484 35.9663C149.425 35.811 149.425 35.6392 149.484 35.4838L150.055 34.0494L150.314 33.4001C150.351 33.2896 150.401 33.1836 150.463 33.0843C150.533 32.9854 150.631 32.9092 150.743 32.865C151.586 32.7114 152.226 32.65 152.687 32.5886C152.922 32.5425 153.162 32.5219 153.402 32.5272C153.344 32.5487 153.283 32.5635 153.222 32.571L152.704 32.6763C152.266 32.7641 151.573 32.8606 150.805 33.0141C150.723 33.0503 150.651 33.1078 150.599 33.1808C150.55 33.2721 150.508 33.3675 150.476 33.4659L150.23 34.1195L149.678 35.5628C149.638 35.6688 149.638 35.7857 149.678 35.8918C149.738 36.0047 149.814 36.1094 149.901 36.2032L150.463 36.8919L151.029 37.5938L151.314 37.9491C151.355 37.9951 151.406 38.0318 151.463 38.0567C151.519 38.0817 151.581 38.0943 151.643 38.0939L153.437 37.8263L153.876 37.7605C154.009 37.7522 154.14 37.7256 154.266 37.6815C154.37 37.6321 154.45 37.5439 154.49 37.4359C154.538 37.3043 154.591 37.177 154.639 37.0498C154.841 36.5498 155.029 36.0672 155.209 35.6154C155.259 35.5072 155.303 35.3975 155.341 35.2864C155.388 35.1952 155.417 35.0951 155.424 34.9925C155.42 34.899 155.391 34.8082 155.341 34.7293L155.148 34.4836L153.959 32.9439C153.907 32.8364 153.829 32.7431 153.733 32.6721C153.636 32.601 153.524 32.5543 153.406 32.536Z" fill="#263238"/>
<path d="M151.634 39.9626C151.73 39.9409 151.826 39.9263 151.924 39.9187L152.762 39.7739L154.078 39.5502C154.351 39.5204 154.619 39.4555 154.876 39.3572C155.157 39.2411 155.411 39.0679 155.622 38.8484C155.863 38.6081 156.049 38.3175 156.166 37.9973C156.293 37.664 156.429 37.313 156.565 36.9489C156.806 36.2164 157.297 35.4662 157.118 34.6284C157.04 34.2035 156.845 33.8086 156.556 33.4878L155.679 32.4L155.24 31.8385C155.1 31.6498 154.935 31.4814 154.749 31.3384C154.369 31.0536 153.907 30.8997 153.433 30.8997C153.188 30.9087 152.945 30.9366 152.705 30.9831L151.972 31.0927L150.546 31.3164C150.109 31.4114 149.711 31.6379 149.406 31.9657C149.259 32.1228 149.135 32.3001 149.037 32.4921C148.945 32.6807 148.871 32.9 148.792 33.0974L148.322 34.2862C148.159 34.6446 148.029 35.0177 147.936 35.4004C147.884 35.746 147.911 36.0988 148.016 36.4323C148.12 36.7659 148.298 37.0715 148.537 37.3262L149.638 38.7299C149.805 38.9317 149.941 39.1335 150.099 39.287C150.242 39.4275 150.402 39.5484 150.577 39.6467C150.913 39.8248 151.282 39.9323 151.661 39.9626C151.661 39.9626 151.634 39.9626 151.582 39.9626C151.529 39.9626 151.459 39.9626 151.362 39.9626C151.074 39.9365 150.794 39.8546 150.538 39.7213C150.352 39.6229 150.18 39.5021 150.024 39.3616C149.852 39.1846 149.69 38.9986 149.537 38.8045L148.41 37.4227C148.152 37.1527 147.959 36.8276 147.845 36.4719C147.731 36.1163 147.699 35.7394 147.752 35.3697C147.84 34.9704 147.968 34.581 148.134 34.2073L148.594 33.0185C148.678 32.8123 148.743 32.6105 148.844 32.3956C148.949 32.1832 149.083 31.9868 149.243 31.8121C149.571 31.4595 149.995 31.2108 150.463 31.0971C150.945 31.0138 151.415 30.948 151.902 30.869L152.634 30.7593C152.886 30.7089 153.141 30.6796 153.398 30.6716C153.92 30.6668 154.43 30.8332 154.85 31.1454C155.051 31.2993 155.23 31.4809 155.38 31.6849L155.819 32.2464C156.117 32.6149 156.407 32.9834 156.696 33.3387C157.009 33.6879 157.218 34.1181 157.297 34.5801C157.375 35.0233 157.326 35.4794 157.157 35.8961C157.008 36.2778 156.859 36.6506 156.718 37.0147C156.578 37.3788 156.438 37.721 156.306 38.0588C156.183 38.3887 155.99 38.688 155.74 38.9361C155.295 39.3639 154.711 39.6176 154.095 39.6511L152.779 39.8354C152.415 39.8836 152.13 39.9231 151.937 39.9362C151.837 39.957 151.736 39.9658 151.634 39.9626Z" fill="#263238"/>
<path d="M194.369 34.238C194.06 34.769 193.679 35.2547 193.237 35.6812C192.848 36.1614 192.381 36.5723 191.855 36.8963C192.225 36.4113 192.631 35.9552 193.07 35.532C193.453 35.053 193.888 34.6189 194.369 34.238Z" fill="#263238"/>
<path d="M186.144 31.7157C186.43 32.2316 186.627 32.7922 186.727 33.3739C186.905 33.941 186.983 34.5346 186.959 35.1285C186.763 34.5784 186.616 34.0117 186.521 33.4353C186.343 32.8749 186.216 32.2993 186.144 31.7157Z" fill="#263238"/>
<path d="M182.871 38.5018C182.297 38.3888 181.734 38.2274 181.187 38.0193C180.618 37.8795 180.06 37.6947 179.52 37.4666C180.7 37.5618 181.844 37.9152 182.871 38.5018Z" fill="#263238"/>
<path d="M181.937 46.1127C182.167 45.654 182.462 45.2313 182.814 44.8581C183.116 44.4402 183.477 44.068 183.885 43.7527C183.658 44.2131 183.362 44.6362 183.007 45.0073C182.705 45.4252 182.345 45.7974 181.937 46.1127Z" fill="#263238"/>
<path d="M189.324 48.5122C189.148 48.0607 189.044 47.5839 189.017 47.0997C188.912 46.6248 188.884 46.136 188.934 45.6521C189.109 46.1057 189.213 46.5837 189.241 47.069C189.344 47.5428 189.372 48.0297 189.324 48.5122Z" fill="#263238"/>
<path d="M195.566 42.8929C195.117 42.8404 194.679 42.7129 194.272 42.5156C193.836 42.3909 193.425 42.192 193.057 41.9278C193.941 42.1073 194.79 42.4335 195.566 42.8929Z" fill="#263238"/>
<path d="M282.65 76.5299C285.62 72.9503 288.59 69.3357 290.906 65.3C293.222 61.2643 294.854 56.7548 294.973 52.1049C294.973 51.3986 294.687 46.5075 294.007 46.3101C293.525 46.1697 293.192 50.4906 292.797 50.8021C289.007 53.7674 286.546 58.1673 285.129 62.7645C283.795 67.2469 282.964 71.8637 282.65 76.5299Z" fill="#263238"/>
<path d="M243.964 103.736C245.149 100.665 250.983 85.3119 250.952 85.3119C250.922 85.3119 240.903 80.083 244.372 69.4322C246.039 64.2866 250.334 53.9736 254.326 44.6826C256.398 39.869 260.206 36.0117 264.993 33.878C269.779 31.7444 275.194 31.4908 280.159 33.1676L281.181 33.5142C291.998 37.9008 294.341 49.5123 289.66 60.2026L268.166 109.991L249.329 104.17L243.964 103.736Z" fill="#FFBF9D"/>
<path d="M250.957 85.3207C250.957 85.3207 257.506 87.9527 266.139 85.8998C266.139 85.8998 260.165 92.6509 249.909 88.1238L250.957 85.3207Z" fill="#A4B3D6"/>
<path d="M254.308 54.9343C254.172 55.3278 254.194 55.7591 254.37 56.1367C254.546 56.5143 254.862 56.8084 255.252 56.9565C255.439 57.0366 255.641 57.0784 255.845 57.0796C256.049 57.0807 256.251 57.041 256.439 56.963C256.627 56.8849 256.798 56.7701 256.942 56.6251C257.085 56.4801 257.198 56.3079 257.274 56.1187C257.412 55.7252 257.39 55.2933 257.214 54.9155C257.038 54.5376 256.721 54.2436 256.331 54.0964C256.143 54.0157 255.942 53.9734 255.738 53.972C255.533 53.9705 255.331 54.0101 255.143 54.0882C254.954 54.1663 254.783 54.2814 254.64 54.4267C254.497 54.5721 254.384 54.7446 254.308 54.9343Z" fill="#263238"/>
<path d="M255.089 49.8589C255.212 50.1221 256.647 49.6571 258.274 50.2142C259.902 50.7713 260.823 51.9689 261.064 51.8461C261.182 51.789 261.112 51.3679 260.718 50.8108C260.179 50.0842 259.428 49.5431 258.568 49.2623C257.717 48.9684 256.794 48.9561 255.936 49.2272C255.304 49.4422 255.028 49.7405 255.089 49.8589Z" fill="#263238"/>
<path d="M268.605 60.6852C268.467 61.0781 268.489 61.5093 268.665 61.8865C268.841 62.2636 269.158 62.5568 269.548 62.7031C269.735 62.7838 269.937 62.8261 270.141 62.8275C270.345 62.8289 270.548 62.7894 270.736 62.7113C270.925 62.6332 271.096 62.518 271.239 62.3727C271.382 62.2274 271.495 62.0548 271.57 61.8652C271.707 61.4717 271.685 61.0403 271.509 60.6627C271.333 60.2851 271.017 59.9911 270.627 59.8429C270.439 59.763 270.237 59.7213 270.033 59.7205C269.829 59.7197 269.627 59.7597 269.439 59.8382C269.25 59.9167 269.079 60.032 268.936 60.1775C268.793 60.3229 268.68 60.4956 268.605 60.6852Z" fill="#263238"/>
<path d="M270.833 55.9081C270.951 56.1713 272.39 55.7107 274.017 56.2634C275.645 56.8162 276.562 58.0181 276.807 57.8997C276.921 57.8383 276.856 57.4171 276.461 56.8644C275.921 56.1367 275.168 55.5942 274.307 55.3115C273.456 55.0167 272.533 55.0044 271.675 55.2764C271.061 55.4914 270.771 55.7897 270.833 55.9081Z" fill="#263238"/>
<path d="M260.757 66.458C260.796 66.3703 259.84 65.8526 258.27 65.0894C257.87 64.9051 257.502 64.6902 257.528 64.3787C257.555 64.0673 257.857 63.6549 258.221 63.2426L260.524 60.4878C263.757 56.5398 266.249 53.2629 266.087 53.1313C265.924 52.9997 263.178 56.0879 259.945 60.0228C259.16 60.9966 258.406 61.9222 257.691 62.8127C257.375 63.2514 256.923 63.69 256.923 64.3743C256.934 64.541 256.983 64.7029 257.066 64.8479C257.149 64.993 257.263 65.1175 257.401 65.2122C257.612 65.3517 257.839 65.4652 258.077 65.55C259.691 66.1948 260.717 66.5501 260.757 66.458Z" fill="#263238"/>
<path d="M265.174 69.2041C264.911 69.1032 264.297 70.871 262.375 71.6124C260.454 72.3537 258.616 71.529 258.519 71.7703C258.458 71.8712 258.826 72.2528 259.612 72.5467C260.644 72.9091 261.771 72.8982 262.796 72.516C263.779 72.145 264.579 71.4076 265.029 70.4587C265.345 69.748 265.297 69.2348 265.174 69.2041Z" fill="#263238"/>
<path d="M273.153 49.3281C273.153 49.8238 274.864 50.1659 276.698 51.0389C278.531 51.9118 279.904 52.9602 280.29 52.6488C280.466 52.4952 280.339 51.9864 279.852 51.3328C279.198 50.5248 278.369 49.8767 277.427 49.4381C276.485 48.9994 275.456 48.7817 274.417 48.8017C273.627 48.8631 273.158 49.0956 273.153 49.3281Z" fill="#263238"/>
<path d="M257.594 44.6694C257.756 45.1388 259.006 45.1081 260.362 45.5468C261.717 45.9854 262.774 46.6391 263.165 46.3408C263.345 46.1916 263.292 45.7617 262.91 45.2397C262.381 44.5935 261.671 44.119 260.871 43.8762C260.072 43.6333 259.218 43.6331 258.418 43.8755C257.813 44.1167 257.528 44.4457 257.594 44.6694Z" fill="#263238"/>
<path d="M286.125 67.774C286.335 67.774 294.139 68.0767 291.463 75.2314C288.787 82.386 282.133 78.2362 282.199 78.0257C282.265 77.8151 286.125 67.774 286.125 67.774Z" fill="#FFBF9D"/>
<path d="M285.405 76.1438C285.445 76.1438 285.498 76.2797 285.673 76.4552C285.921 76.6946 286.254 76.8269 286.599 76.8237C287.476 76.8237 288.546 75.863 289.064 74.5821C289.313 73.9737 289.423 73.3171 289.384 72.6607C289.403 72.4103 289.359 72.1592 289.257 71.9297C289.156 71.7001 288.999 71.4992 288.801 71.3447C288.671 71.2491 288.511 71.2032 288.35 71.2152C288.189 71.2273 288.038 71.2966 287.923 71.4105C287.752 71.5772 287.744 71.7352 287.704 71.7352C287.665 71.7352 287.594 71.5553 287.761 71.2965C287.866 71.1362 288.02 71.0145 288.2 70.9499C288.453 70.875 288.725 70.9018 288.959 71.0245C289.229 71.195 289.451 71.4314 289.605 71.7116C289.758 71.9917 289.838 72.3062 289.836 72.6256C289.907 73.3615 289.799 74.1035 289.52 74.7883C288.932 76.2139 287.691 77.2931 286.542 77.2053C286.328 77.1883 286.121 77.1239 285.935 77.017C285.749 76.91 285.589 76.7631 285.467 76.5868C285.353 76.328 285.375 76.1481 285.405 76.1438Z" fill="#A4B3D6"/>
<path d="M263.481 34.624C262.568 33.5449 267.477 31.1147 270.815 30.9304C275.86 30.6321 282.883 31.9481 286.41 34.5933C290.665 37.7736 293.714 41.669 294.442 46.9286C295.17 52.1882 294.13 57.5926 292.091 62.4969C291.468 63.9927 290.704 65.5061 289.406 66.4756C287.805 67.6731 285.506 67.932 284.752 70.1472C284.627 70.5518 284.423 70.9276 284.152 71.2529C283.881 71.5782 283.548 71.8465 283.173 72.0423C281.33 72.9196 280.233 71.0114 280.001 69.4103C279.505 66.0062 280.611 62.5978 281.703 59.3209C282.479 57.0048 283.282 54.6404 284.774 52.6971C285.581 51.6399 286.572 50.7318 287.322 49.6264C288.072 48.521 288.559 47.1392 288.2 45.8626C288.108 45.5811 287.989 45.3093 287.844 45.0511C287.181 43.7994 286.197 42.7464 284.993 42.0003C283.789 41.2541 282.408 40.8415 280.992 40.8048C276.417 40.6864 268.71 40.1731 267.459 38.1202C265.63 35.1636 265.503 33.6458 265.503 33.6458L263.481 34.624Z" fill="#263238"/>
<path d="M287.327 30.2154C287.787 30.4479 298.565 37.1069 298.495 46.819C298.425 56.5311 296.648 58.9086 296.648 58.9086C297.01 59.3538 297.305 59.8488 297.526 60.3782C297.815 61.1151 296.161 63.6155 294.745 62.7821C285.068 53.8026 271.732 48.6438 256.519 43.9194L245.044 39.8091C241.683 39.0765 240.846 37.8263 242.486 37.4885C243.745 37.2253 254.168 36.6989 254.168 36.6989L256.418 36.0058L263.437 31.0445C263.437 31.0445 263.165 29.9215 264.591 29.5574C266.016 29.1934 278.264 25.6094 287.327 30.2154Z" fill="#B8B0E2"/>
<path d="M256.41 36.0234C256.41 36.0234 256.563 36.0848 256.848 36.1813L258.164 36.5936C259.296 36.9314 260.906 37.5017 262.889 38.2299C268.019 40.2043 272.967 42.6233 277.676 45.4591C282.383 48.3068 286.923 51.4205 291.275 54.7851C292.959 56.0617 294.297 57.1232 295.223 57.8558L296.298 58.6937C296.543 58.8823 296.679 58.9744 296.679 58.9744C296.679 58.9744 296.561 58.8604 296.32 58.6586L295.271 57.7812C294.354 57.0355 293.025 55.9564 291.354 54.6667C287.017 51.2625 282.476 48.1274 277.755 45.2792C273.032 42.4329 268.057 40.0262 262.893 38.0895C260.768 37.2927 258.604 36.6031 256.41 36.0234Z" fill="#263238"/>
<g opacity="0.3">
<path d="M296.249 39.0413C296.249 39.0413 284.353 32.6719 277.781 33.444L278.554 33.3387L272.412 33.8475C271.373 33.9353 270.184 33.966 269.473 33.2071C269.473 33.2071 273.197 31.6279 279.08 31.6586C284.962 31.6893 293.595 33.7773 296.249 39.0413Z" fill="black"/>
</g>
<path d="M296.407 39.1467C296.143 38.7496 295.85 38.3728 295.53 38.0193C294.673 37.0409 293.704 36.1663 292.644 35.4136C291.073 34.2887 289.345 33.4018 287.516 32.7816C285.286 31.9605 282.905 31.6298 280.536 31.8122C279.32 31.9347 278.113 32.134 276.922 32.4088C275.772 32.6676 274.654 32.8474 273.597 33.1545C272.627 33.4761 271.632 33.7138 270.622 33.8651C269.739 33.9525 268.847 33.8339 268.017 33.5186C264.907 32.4965 263.227 31.2024 263.437 31.0577C263.448 31.1837 263.506 31.301 263.599 31.3867C263.852 31.6336 264.135 31.8473 264.442 32.0227C265.558 32.691 266.744 33.2367 267.977 33.6502C268.826 33.9782 269.738 34.1073 270.644 34.0275C271.665 33.8847 272.672 33.6543 273.654 33.3387C274.689 33.0536 275.821 32.8606 276.97 32.6018C278.154 32.3382 279.352 32.1449 280.558 32.0227C282.899 31.8466 285.251 32.168 287.458 32.9659C289.274 33.5734 290.994 34.4375 292.565 35.5321C293.624 36.2696 294.6 37.1213 295.473 38.072C295.784 38.4097 296.017 38.6817 296.166 38.8703C296.315 39.059 296.407 39.1467 296.407 39.1467Z" fill="#263238"/>
<g opacity="0.3">
<path d="M298.355 50.8328C296.1 50.0388 294.591 48.8675 292.516 47.6042C290.323 46.2619 288.081 45.0336 285.936 43.586C284.308 42.4893 282.339 41.3313 281.615 39.638C281.375 40.0488 281.245 40.5147 281.238 40.9905C281.231 41.4663 281.347 41.9358 281.576 42.3533C282.036 43.2307 283.988 44.7967 284.822 45.3626C289.564 48.5868 292.858 50.7889 298.157 53.0305C298.27 52.3045 298.335 51.5717 298.35 50.8372" fill="black"/>
</g>
<path d="M298.469 45.7441C299.689 46.854 300.421 47.5734 300.044 48.8148C299.733 49.8413 299.101 51.0081 298.039 50.8458C297.725 50.7729 297.428 50.642 297.162 50.4598L282.633 41.9541C282.107 41.7236 281.681 41.3129 281.431 40.796C281.142 39.9713 281.87 39.0676 282.708 38.8395C283.546 38.6114 284.441 38.8395 285.274 39.129C290.003 40.66 294.315 43.0112 298.469 45.7397" fill="#B8B0E2"/>
<path d="M281.589 41.1119C281.455 40.8583 281.391 40.5736 281.405 40.2872C281.437 39.9007 281.578 39.5312 281.811 39.2209C282.043 38.9105 282.359 38.672 282.721 38.5326C283.651 38.2167 284.883 38.4273 286.094 38.9186C287.305 39.4099 288.669 39.967 290.042 40.6031C292.427 41.6608 294.713 42.9292 296.872 44.3932C297.697 44.959 298.333 45.4591 298.776 45.8057L299.276 46.2136C299.332 46.2639 299.394 46.308 299.46 46.3452C299.46 46.3452 299.412 46.2838 299.302 46.1829L298.824 45.7442C298.385 45.3802 297.776 44.8669 296.955 44.2747C294.81 42.7695 292.522 41.478 290.125 40.4188C288.73 39.7784 287.384 39.2257 286.147 38.7387C284.91 38.2518 283.642 38.0413 282.637 38.3966C282.257 38.5484 281.928 38.8066 281.69 39.1403C281.452 39.474 281.315 39.8691 281.295 40.2785C281.289 40.4983 281.336 40.7163 281.431 40.9145C281.472 40.989 281.525 41.0558 281.589 41.1119Z" fill="#263238"/>
<path d="M261.235 32.6193L271.109 35.7821L269.333 38.2606L258.748 34.374L261.235 32.6193Z" fill="white"/>
<path d="M273.079 46.4154C273.101 46.3627 268.947 44.222 263.792 41.669C258.638 39.116 254.427 37.0498 254.427 37.1025C254.427 37.1551 258.559 39.2958 263.713 41.8489C268.868 44.4019 273.053 46.4636 273.079 46.4154Z" fill="#263238"/>
<path d="M275.566 99.6344L275.698 93.1509L253.51 101.393C253.51 101.393 249.408 88.0711 249.408 87.4438L244.491 90.5145L236.319 87.0052L228.146 82.9694L211.617 111.921L194.277 163.044L235.125 190.294L265.42 157.832L283.844 129.758L293.968 111.983L275.566 99.6344Z" fill="#B8B0E2"/>
<path d="M251.536 101.297C251.51 101.082 251.5 100.865 251.506 100.648C251.506 100.209 251.506 99.5861 251.479 98.8316L251.58 98.893C249.142 100.084 246.891 101.625 244.899 103.468L244.724 103.635V103.394C244.724 103.104 244.689 102.797 244.671 102.486C244.491 99.3054 244.342 96.4277 244.233 94.3397C244.189 93.322 244.154 92.4885 244.127 91.87C244.127 91.6009 244.127 91.3772 244.127 91.1988C244.098 91.1934 244.072 91.1773 244.055 91.1537C244.037 91.1301 244.029 91.1008 244.031 91.0714C244.034 91.042 244.048 91.0147 244.069 90.9949C244.091 90.975 244.12 90.964 244.149 90.964C244.179 90.964 244.207 90.975 244.229 90.9949C244.251 91.0147 244.264 91.042 244.267 91.0714C244.27 91.1008 244.262 91.1301 244.244 91.1537C244.226 91.1773 244.2 91.1934 244.171 91.1988C244.171 91.3743 244.206 91.598 244.233 91.8656C244.276 92.4841 244.333 93.3176 244.404 94.3309C244.544 96.4146 244.715 99.2922 244.895 102.473C244.895 102.784 244.93 103.091 244.943 103.381L244.755 103.302C246.762 101.446 249.047 99.9153 251.528 98.7658L251.633 98.722V98.8316C251.633 99.5861 251.602 100.196 251.593 100.648C251.59 100.865 251.571 101.082 251.536 101.297Z" fill="#263238"/>
<path d="M273.522 99.9459C273.442 100.001 273.357 100.047 273.267 100.082L272.526 100.437L269.78 101.696L260.673 105.767L256.348 107.68L256.164 107.759L256.199 107.561C256.556 105.504 256.723 103.419 256.699 101.332L256.8 101.393L254.751 102.389L254.203 102.644C254.08 102.701 254.014 102.727 254.01 102.718C254.063 102.674 254.122 102.638 254.185 102.609L254.716 102.319L256.738 101.266L256.835 101.214V101.332C256.897 103.437 256.75 105.542 256.396 107.618L256.247 107.5L260.568 105.578L269.701 101.565L272.482 100.371L273.241 100.06C273.329 100.011 273.424 99.9722 273.522 99.9459Z" fill="#263238"/>
<path d="M234.73 67.5021H67.6423C64.1125 67.5021 61.251 70.3636 61.251 73.8934V189.587C61.251 193.117 64.1125 195.979 67.6423 195.979H234.73C238.26 195.979 241.122 193.117 241.122 189.587V73.8934C241.122 70.3636 238.26 67.5021 234.73 67.5021Z" fill="#455A64"/>
<path d="M54.2192 187.679H249.097V191.114C249.097 193.185 248.274 195.171 246.81 196.635C245.346 198.1 243.36 198.922 241.289 198.922H62.0275C59.9566 198.922 57.9706 198.1 56.5062 196.635C55.0419 195.171 54.2192 193.185 54.2192 191.114V187.679Z" fill="#455A64"/>
<path d="M235.792 72.6082H66.0811V181.104H235.792V72.6082Z" fill="#263238"/>
<path d="M133.456 186.477L135.873 190.631H169.9L172.146 186.477H133.456Z" fill="#263238"/>
<path d="M231.208 76.2797H71.0072C70.215 76.2797 69.5728 76.9219 69.5728 77.7142V179.318C69.5728 180.11 70.215 180.753 71.0072 180.753H231.208C232 180.753 232.643 180.11 232.643 179.318V77.7142C232.643 76.9219 232 76.2797 231.208 76.2797Z" fill="#EBEBEB"/>
<path d="M232.471 180.906H69.4014L69.5724 84.0881H232.471V180.906Z" fill="#FAFAFA"/>
<path d="M83.2763 80.3155C83.2634 80.5778 83.1739 80.8306 83.0188 81.0425C82.8637 81.2544 82.6498 81.4162 82.4037 81.5078C82.1576 81.5994 81.89 81.6167 81.6341 81.5577C81.3782 81.4988 81.1452 81.366 80.964 81.1759C80.7828 80.9858 80.6613 80.7468 80.6146 80.4883C80.568 80.2299 80.5981 79.9635 80.7014 79.722C80.8046 79.4805 80.9764 79.2746 81.1955 79.1299C81.4146 78.9851 81.6714 78.9077 81.934 78.9074C82.2985 78.9166 82.6446 79.07 82.8962 79.334C83.1479 79.5979 83.2845 79.9509 83.2763 80.3155Z" fill="#263238"/>
<path d="M75.1352 80.3155C75.1223 80.5778 75.0328 80.8306 74.8777 81.0425C74.7226 81.2544 74.5087 81.4162 74.2626 81.5078C74.0165 81.5994 73.7489 81.6167 73.493 81.5577C73.2371 81.4988 73.0041 81.366 72.8229 81.1759C72.6417 80.9858 72.5202 80.7468 72.4735 80.4883C72.4268 80.2299 72.457 79.9635 72.5602 79.722C72.6635 79.4805 72.8353 79.2746 73.0544 79.1299C73.2735 78.9851 73.5302 78.9077 73.7929 78.9074C74.1574 78.9166 74.5035 79.07 74.7551 79.334C75.0067 79.5979 75.1434 79.9509 75.1352 80.3155Z" fill="#263238"/>
<path d="M79.3198 80.3155C79.3069 80.5778 79.2173 80.8306 79.0622 81.0425C78.9071 81.2544 78.6933 81.4162 78.4472 81.5078C78.201 81.5994 77.9334 81.6167 77.6775 81.5577C77.4216 81.4988 77.1886 81.366 77.0074 81.1759C76.8262 80.9858 76.7048 80.7468 76.6581 80.4883C76.6114 80.2299 76.6416 79.9635 76.7448 79.722C76.8481 79.4805 77.0199 79.2746 77.239 79.1299C77.4581 78.9851 77.7148 78.9077 77.9774 78.9074C78.342 78.9166 78.688 79.07 78.9397 79.334C79.1913 79.5979 79.328 79.9509 79.3198 80.3155Z" fill="#263238"/>
<path d="M239.578 186.477C239.578 186.547 199.659 186.6 150.419 186.6C101.178 186.6 61.251 186.547 61.251 186.477C61.251 186.407 101.17 186.35 150.419 186.35C199.668 186.35 239.578 186.407 239.578 186.477Z" fill="#263238"/>
<path d="M133.591 102.648C136.243 101.048 139.096 99.8084 142.075 98.9633L143.83 90.5628L158.016 90.3127L160.061 98.6474C163.067 99.3898 165.961 100.529 168.667 102.034L175.839 97.3358L186.047 107.193L181.608 114.532C183.209 117.184 184.448 120.039 185.293 123.02L193.689 124.774L193.939 138.961L185.604 141.005C184.86 144.003 183.72 146.889 182.213 149.585L186.916 156.758L177.059 166.965L169.729 162.522C167.076 164.123 164.222 165.362 161.241 166.206L159.486 174.607L145.295 174.853L143.255 166.518C140.257 165.783 137.37 164.652 134.671 163.153L127.498 167.856L117.291 157.999L121.734 150.669C120.132 148.017 118.891 145.162 118.045 142.181L109.649 140.426L109.399 126.24L117.734 124.195C118.475 121.189 119.614 118.294 121.12 115.589L116.422 108.417L126.279 98.2087L133.591 102.648ZM141.154 121.55C139.063 123.716 137.661 126.453 137.126 129.416C136.591 132.378 136.946 135.433 138.147 138.194C139.347 140.954 141.34 143.297 143.872 144.925C146.404 146.554 149.362 147.395 152.372 147.342C155.382 147.289 158.309 146.345 160.782 144.629C163.256 142.913 165.165 140.502 166.268 137.701C167.371 134.9 167.619 131.834 166.98 128.893C166.342 125.951 164.845 123.264 162.679 121.173C161.24 119.785 159.542 118.694 157.682 117.963C155.821 117.231 153.835 116.873 151.836 116.909C149.837 116.946 147.865 117.375 146.032 118.174C144.199 118.972 142.542 120.124 141.154 121.563V121.55Z" fill="#E0E0E0"/>
<path d="M190.272 108.074C190.466 107.025 190.798 106.006 191.259 105.043L189.504 102.674L192.68 98.9544L195.312 100.332C196.19 99.7269 197.144 99.2415 198.15 98.8886L198.589 95.9627L203.463 95.5811L204.34 98.4017C205.39 98.5956 206.409 98.929 207.371 99.3931L209.74 97.6384L213.46 100.819L212.082 103.451C212.69 104.329 213.176 105.285 213.53 106.293L216.451 106.732L216.833 111.61L214.012 112.487C213.82 113.538 213.486 114.557 213.021 115.518L214.776 117.892L211.6 121.607L208.968 120.23C208.089 120.837 207.133 121.324 206.125 121.677L205.687 124.603L200.813 124.985L199.936 122.16C198.886 121.967 197.866 121.636 196.904 121.173L194.531 122.928L190.82 119.712L192.198 117.08C191.591 116.201 191.104 115.245 190.75 114.238L187.828 113.799L187.447 108.921L190.267 108.044L190.272 108.074ZM196.883 109.553C196.778 110.65 197.021 111.752 197.577 112.703C198.132 113.655 198.972 114.408 199.979 114.857C200.985 115.306 202.107 115.428 203.186 115.205C204.265 114.983 205.248 114.427 205.994 113.617C206.741 112.806 207.215 111.782 207.348 110.688C207.482 109.594 207.269 108.486 206.739 107.52C206.209 106.554 205.39 105.778 204.396 105.302C203.402 104.826 202.284 104.674 201.199 104.868C200.066 105.07 199.031 105.637 198.252 106.483C197.472 107.329 196.991 108.407 196.883 109.553Z" fill="#E0E0E0"/>
<path d="M83.4436 157.043C83.479 155.782 83.6841 154.533 84.0533 153.327L81.5661 150.901L84.6104 145.997L87.9092 147.138C88.8305 146.273 89.8632 145.535 90.9799 144.944L90.9535 141.457L96.5772 140.141L98.0994 143.277C99.3597 143.312 100.61 143.518 101.815 143.887L104.267 141.4L109.171 144.444L108.031 147.743C108.895 148.664 109.633 149.697 110.224 150.814L113.712 150.787L115.028 156.407L111.887 157.92C111.848 159.18 111.641 160.43 111.273 161.636L113.76 164.083L110.715 168.992L107.417 167.851C106.496 168.717 105.463 169.455 104.346 170.045L104.372 173.532L98.753 174.848L97.2265 171.712C95.9696 171.668 94.7244 171.455 93.5241 171.08L91.0764 173.567L86.1677 170.523L87.3082 167.224C86.4436 166.303 85.706 165.27 85.1149 164.153L81.6056 164.18L80.2896 158.56L83.426 157.034L83.4436 157.043ZM91.5721 158.622C91.8538 159.813 92.4824 160.895 93.3783 161.729C94.2743 162.563 95.3974 163.114 96.6058 163.31C97.8143 163.506 99.0538 163.34 100.168 162.833C101.282 162.325 102.221 161.499 102.865 160.458C103.51 159.417 103.832 158.209 103.79 156.985C103.748 155.761 103.345 154.578 102.631 153.583C101.917 152.589 100.924 151.828 99.7776 151.398C98.6314 150.967 97.3834 150.886 96.1912 151.165C95.3963 151.35 94.6458 151.69 93.9829 152.167C93.32 152.643 92.7578 153.245 92.3285 153.939C91.8993 154.634 91.6115 155.406 91.4816 156.212C91.3518 157.018 91.3826 157.841 91.5721 158.635V158.622Z" fill="#E0E0E0"/>
<path d="M93.5367 110.184C93.68 109.392 93.9309 108.623 94.2825 107.899L92.9665 106.109L95.3616 103.306L97.3356 104.346C97.9978 103.889 98.7177 103.521 99.4763 103.253L99.8009 101.06L103.477 100.771L104.135 102.898C104.926 103.045 105.695 103.296 106.42 103.644L108.21 102.328L111.009 104.723L109.974 106.697C110.431 107.358 110.797 108.078 111.061 108.838L113.255 109.158L113.544 112.834L111.421 113.474C111.276 114.266 111.027 115.034 110.68 115.76L111.996 117.545L109.601 120.348L107.627 119.309C106.965 119.767 106.245 120.135 105.486 120.401L105.166 122.594L101.49 122.879L100.827 120.752C100.035 120.608 99.2665 120.357 98.5419 120.006L96.7566 121.322L93.9535 118.927L94.9887 116.953C94.5315 116.292 94.1655 115.572 93.9008 114.812L91.7075 114.488L91.4224 110.812L93.5499 110.154L93.5367 110.184ZM98.5156 111.97C98.5777 112.747 98.8688 113.489 99.3521 114.102C99.8355 114.714 100.49 115.17 101.232 115.411C101.974 115.652 102.77 115.667 103.521 115.456C104.272 115.244 104.944 114.815 105.451 114.222C105.958 113.629 106.278 112.9 106.371 112.125C106.464 111.35 106.325 110.565 105.972 109.87C105.619 109.174 105.068 108.598 104.388 108.215C103.708 107.833 102.93 107.66 102.152 107.719C101.634 107.758 101.129 107.9 100.665 108.135C100.202 108.37 99.789 108.694 99.4511 109.089C99.1133 109.484 98.8567 109.942 98.6962 110.436C98.5356 110.93 98.4743 111.452 98.5156 111.97Z" fill="#EBEBEB"/>
<path d="M190.456 149.774C190.583 149.094 190.798 148.433 191.096 147.809L189.951 146.273L192.009 143.865L193.706 144.742C194.274 144.349 194.892 144.033 195.544 143.804L195.821 141.909L198.979 141.663L199.545 143.492C200.226 143.617 200.887 143.833 201.51 144.133L203.045 142.988L205.454 145.045L204.576 146.738C204.97 147.308 205.286 147.928 205.515 148.581L207.41 148.857L207.656 152.016L205.827 152.581C205.702 153.262 205.486 153.923 205.186 154.547L206.331 156.082L204.274 158.486L202.58 157.609C202.01 158.001 201.391 158.316 200.738 158.547L200.462 160.438L197.303 160.684L196.737 158.859C196.057 158.732 195.397 158.517 194.772 158.218L193.237 159.363L190.82 157.306L191.697 155.613C191.303 155.045 190.988 154.426 190.758 153.775L188.868 153.498L188.618 150.34L190.447 149.774H190.456ZM194.733 151.305C194.785 151.976 195.035 152.617 195.451 153.146C195.868 153.675 196.432 154.069 197.072 154.276C197.713 154.484 198.4 154.498 199.048 154.314C199.696 154.131 200.275 153.759 200.711 153.246C201.148 152.733 201.422 152.103 201.499 151.434C201.577 150.765 201.454 150.088 201.146 149.489C200.838 148.89 200.36 148.396 199.771 148.07C199.182 147.743 198.509 147.599 197.838 147.655C196.943 147.729 196.114 148.155 195.532 148.839C194.95 149.523 194.662 150.409 194.733 151.305Z" fill="#EBEBEB"/>
<path d="M151.66 154.534H129.845C128.563 154.53 127.304 154.191 126.194 153.548C125.084 152.906 124.163 151.984 123.521 150.874C122.879 149.764 122.54 148.505 122.538 147.222C122.535 145.94 122.869 144.68 123.506 143.567L134.42 124.665L145.33 105.763C145.974 104.651 146.898 103.727 148.011 103.085C149.124 102.443 150.386 102.106 151.671 102.106C152.956 102.106 154.218 102.443 155.331 103.085C156.444 103.727 157.369 104.651 158.012 105.763L168.926 124.665L179.84 143.567C180.478 144.68 180.812 145.941 180.809 147.223C180.806 148.506 180.467 149.765 179.825 150.876C179.182 151.986 178.26 152.908 177.149 153.55C176.039 154.192 174.78 154.531 173.497 154.534H151.66Z" fill="#B8B0E2"/>
<path d="M175.156 145.734C175.156 145.734 175.213 145.844 175.322 146.072C175.509 146.529 175.581 147.025 175.53 147.516C175.48 148.007 175.309 148.479 175.033 148.888C174.816 149.211 174.537 149.488 174.212 149.704C173.835 149.944 173.404 150.086 172.958 150.116C169.238 150.156 163.869 150.147 157.227 150.164L133.899 150.191H130.565C129.97 150.184 129.392 149.993 128.911 149.645C128.429 149.296 128.068 148.806 127.876 148.243C127.673 147.681 127.635 147.072 127.766 146.488C127.801 146.344 127.85 146.199 127.898 146.05C127.946 145.901 128.025 145.773 128.091 145.642L128.53 144.874C129.091 143.843 129.661 142.808 130.232 141.76L137.303 128.779L144.418 115.808C145.562 113.711 146.688 111.654 147.796 109.636C148.077 109.136 148.335 108.631 148.634 108.136C148.93 107.629 149.353 107.209 149.862 106.916C150.36 106.631 150.92 106.468 151.493 106.442C152.067 106.416 152.639 106.528 153.161 106.767C153.679 107.001 154.131 107.36 154.477 107.811C154.776 108.266 155.047 108.739 155.288 109.228C155.802 110.167 156.31 111.092 156.806 112.005C157.806 113.83 158.773 115.6 159.706 117.317C161.579 120.743 163.32 123.937 164.908 126.849C168.084 132.679 170.65 137.399 172.427 140.667L174.462 144.427C174.691 144.865 174.866 145.181 174.984 145.409C175.103 145.637 175.16 145.747 175.16 145.747C175.16 145.747 175.09 145.637 174.967 145.418L174.423 144.449L172.348 140.707C170.558 137.447 167.961 132.745 164.768 126.928L159.543 117.405L156.631 112.101C156.131 111.189 155.626 110.263 155.108 109.325C154.867 108.851 154.599 108.391 154.306 107.947C153.982 107.526 153.56 107.19 153.077 106.969C152.586 106.743 152.048 106.638 151.508 106.663C150.967 106.687 150.441 106.84 149.972 107.109C149.496 107.387 149.1 107.783 148.822 108.259C148.533 108.737 148.27 109.25 147.993 109.75L144.616 115.922C142.326 120.116 139.948 124.454 137.518 128.902L130.416 141.874C129.841 142.922 129.275 143.962 128.709 144.988C128.401 145.472 128.158 145.994 127.986 146.541C127.861 147.088 127.896 147.659 128.087 148.186C128.26 148.708 128.593 149.163 129.038 149.487C129.483 149.81 130.019 149.986 130.569 149.989H133.903L157.232 150.011L172.958 150.033C173.389 150.008 173.806 149.875 174.173 149.647C174.493 149.439 174.768 149.171 174.984 148.857C175.322 148.36 175.503 147.773 175.502 147.173C175.497 146.673 175.378 146.181 175.156 145.734Z" fill="#263238"/>
<path d="M148.125 141.689C148.125 139.755 149.669 138.312 151.866 138.312C154.064 138.312 155.573 139.755 155.573 141.689C155.573 143.624 154.064 145.133 151.866 145.133C149.669 145.133 148.125 143.598 148.125 141.689ZM148.16 121.875H155.573L154.327 136.474H149.375L148.16 121.875Z" fill="white"/>
<path d="M152.704 103.578C152.255 103.426 151.79 103.329 151.318 103.289C150.171 103.264 149.051 103.639 148.151 104.35C147.272 105.083 146.564 105.999 146.076 107.035C145.677 107.824 145.488 108.351 145.453 108.329C145.465 108.199 145.496 108.072 145.545 107.952C145.655 107.615 145.784 107.286 145.931 106.965C146.395 105.878 147.113 104.918 148.024 104.166C148.962 103.421 150.144 103.052 151.34 103.131C151.698 103.157 152.05 103.243 152.38 103.385C152.595 103.486 152.713 103.565 152.704 103.578Z" fill="white"/>
<path d="M143.58 111.597C143.67 111.218 143.833 110.861 144.058 110.544C144.378 110.004 144.681 109.592 144.738 109.623C144.646 109.996 144.482 110.347 144.256 110.658C144.093 111.012 143.864 111.33 143.58 111.597Z" fill="white"/>
<g opacity="0.3">
<path d="M162.609 113.729L128.617 134.671L124.204 142.321L165.009 117.883L162.609 113.729Z" fill="white"/>
</g>
<g opacity="0.3">
<path d="M167.961 123.011L122.906 149.585C123.086 150.282 123.421 150.93 123.884 151.48L168.755 124.388L167.961 123.011Z" fill="white"/>
</g>
<path d="M279.308 172.572C277.595 170.684 275.375 169.329 272.913 168.67C270.451 168.01 267.851 168.073 265.424 168.852L261.226 164.246L260.643 163.592L227.422 127.143C228.356 124.98 228.697 122.607 228.41 120.268C228.123 117.929 227.218 115.709 225.789 113.836C224.359 111.962 222.457 110.504 220.277 109.609C218.097 108.714 215.718 108.416 213.385 108.746L211.762 109.39L217.408 113.176L217.105 119.339L212.539 123.485L206.375 123.182L202.348 118.743L200.686 119.396C200.208 123.112 202.699 127.797 205.415 130.802C207.124 132.687 209.34 134.04 211.798 134.701C214.256 135.361 216.852 135.3 219.276 134.526L253.054 171.585L254.089 172.738L257.291 176.248C256.29 178.582 255.98 181.156 256.399 183.661C256.818 186.167 257.949 188.5 259.656 190.381C262.358 193.364 265.946 195.356 269.679 195.255L271.346 194.606L267.315 190.162L267.617 184.021L272.184 179.875L278.325 180.174L280.685 185.267L282.352 184.613C282.866 182.51 282.858 180.313 282.327 178.214C281.796 176.115 280.76 174.178 279.308 172.572Z" fill="#E0E0E0"/>
<g opacity="0.3">
<path d="M279.308 172.572C277.595 170.684 275.375 169.329 272.913 168.67C270.451 168.01 267.851 168.073 265.424 168.852L261.226 164.246L260.643 163.592L227.422 127.143C228.356 124.98 228.697 122.607 228.41 120.268C228.123 117.929 227.218 115.709 225.789 113.836C224.359 111.962 222.457 110.504 220.277 109.609C218.097 108.714 215.718 108.416 213.385 108.746L211.762 109.39L217.408 113.176L217.105 119.339L212.539 123.485L206.375 123.182L202.348 118.743L200.686 119.396C200.208 123.112 202.699 127.797 205.415 130.802C207.124 132.687 209.34 134.04 211.798 134.701C214.256 135.361 216.852 135.3 219.276 134.526L253.054 171.585L254.089 172.738L257.291 176.248C256.29 178.582 255.98 181.156 256.399 183.661C256.818 186.167 257.949 188.5 259.656 190.381C262.358 193.364 265.946 195.356 269.679 195.255L271.346 194.606L267.315 190.162L267.617 184.021L272.184 179.875L278.325 180.174L280.685 185.267L282.352 184.613C282.866 182.51 282.858 180.313 282.327 178.214C281.796 176.115 280.76 174.178 279.308 172.572Z" fill="black"/>
</g>
<path d="M277.641 173.221C275.929 171.333 273.71 169.979 271.248 169.32C268.787 168.661 266.188 168.726 263.762 169.505L259.559 164.895L258.976 164.241L225.756 127.792C226.69 125.629 227.031 123.256 226.744 120.918C226.457 118.579 225.552 116.359 224.123 114.486C222.693 112.613 220.79 111.154 218.61 110.26C216.43 109.366 214.051 109.069 211.718 109.399L215.745 113.838L215.447 119.98L210.872 124.143L204.73 123.844L200.703 119.405C200.147 121.694 200.21 124.089 200.885 126.346C201.561 128.602 202.826 130.637 204.55 132.243C206.273 133.848 208.393 134.966 210.691 135.48C212.99 135.995 215.384 135.888 217.627 135.171L251.405 172.229L252.444 173.383L255.646 176.892C254.717 179.055 254.379 181.426 254.668 183.762C254.957 186.098 255.862 188.315 257.291 190.185C258.72 192.056 260.621 193.512 262.799 194.406C264.977 195.299 267.353 195.597 269.684 195.268L265.652 190.82L265.951 184.679L270.522 180.533L276.663 180.836L280.69 185.275C281.207 183.17 281.2 180.97 280.668 178.868C280.137 176.766 279.097 174.827 277.641 173.221Z" fill="#E0E0E0"/>
<path d="M277.641 173.221C277.641 173.221 277.834 173.431 278.198 173.857C278.717 174.504 279.176 175.197 279.571 175.927C281.096 178.794 281.517 182.119 280.756 185.275V185.363L280.694 185.297L276.663 180.862L276.698 180.884L270.557 180.59H270.6L266.038 184.74V184.692C265.951 186.604 265.85 188.688 265.744 190.855V190.798L269.741 195.207L269.846 195.321L269.692 195.343C267.468 195.666 265.198 195.421 263.094 194.63C260.99 193.839 259.121 192.528 257.66 190.82C256.07 188.974 255.023 186.724 254.633 184.319C254.219 181.798 254.533 179.211 255.537 176.862V176.967L217.509 135.254L217.627 135.285C215.224 136.044 212.656 136.117 210.214 135.495C206.811 134.615 203.892 132.432 202.086 129.417C200.28 126.402 199.733 122.798 200.563 119.383L200.616 119.173L200.76 119.331L204.787 123.77L204.708 123.735L210.872 124.033L210.788 124.064L215.385 119.914L215.346 119.993C215.447 117.914 215.548 115.865 215.649 113.83L215.675 113.909L211.648 109.469L211.512 109.316L211.714 109.289C214.14 108.947 216.613 109.277 218.864 110.244C221.115 111.211 223.058 112.777 224.479 114.773C225.839 116.677 226.673 118.905 226.896 121.234C227.103 123.479 226.749 125.74 225.865 127.814V127.709L263.832 169.453H263.779C265.586 168.876 267.496 168.692 269.38 168.913C271.264 169.135 273.078 169.757 274.702 170.738C275.527 171.241 276.297 171.83 277.001 172.493C277.439 172.962 277.676 173.203 277.676 173.203L276.983 172.51C276.274 171.85 275.501 171.263 274.676 170.755C273.056 169.79 271.249 169.18 269.376 168.967C267.503 168.753 265.605 168.942 263.81 169.518H263.779V169.492L225.742 127.819L225.699 127.77L225.725 127.713C226.595 125.664 226.941 123.43 226.734 121.212C226.514 118.919 225.691 116.724 224.347 114.852C222.948 112.889 221.036 111.347 218.821 110.397C216.605 109.446 214.171 109.122 211.784 109.461L211.85 109.281L215.824 113.764L215.855 113.795V113.843C215.758 115.872 215.659 117.919 215.557 119.984V120.032L215.521 120.063L210.955 124.208L210.92 124.239H210.872L204.73 123.937H204.682L204.651 123.901L200.62 119.462L200.817 119.414C200.267 121.682 200.329 124.055 200.998 126.291C201.667 128.527 202.918 130.545 204.624 132.138C206.33 133.731 208.429 134.842 210.705 135.356C212.982 135.87 215.354 135.77 217.579 135.065H217.645L217.697 135.118C231.506 150.287 244.456 164.487 255.699 176.848L255.743 176.897L255.716 176.958C254.73 179.269 254.418 181.812 254.817 184.293C255.202 186.603 256.192 188.769 257.687 190.572C259.182 192.374 261.128 193.748 263.327 194.553C265.356 195.287 267.534 195.513 269.67 195.211L269.618 195.347L265.595 190.908L265.573 190.881V190.82C265.679 188.657 265.78 186.574 265.876 184.679V184.648V184.626L270.451 180.489H270.478L276.619 180.796C278.093 182.428 279.448 183.924 280.637 185.245H280.558C281.326 182.108 280.922 178.8 279.422 175.94C279.033 175.21 278.582 174.515 278.075 173.861C277.821 173.444 277.641 173.221 277.641 173.221Z" fill="#263238"/>
<path d="M224.242 129.92C224.211 130.036 224.162 130.147 224.097 130.249C223.944 130.534 223.772 130.81 223.584 131.074C222.34 132.843 220.586 134.191 218.557 134.938C218.253 135.053 217.943 135.146 217.627 135.219C217.514 135.257 217.395 135.276 217.276 135.276C217.276 135.237 217.754 135.105 218.5 134.789C220.456 133.975 222.166 132.662 223.457 130.982C223.952 130.337 224.207 129.902 224.242 129.92Z" fill="#263238"/>
<path d="M261.34 145.751L248.724 139.873L237.446 138.465L241.587 141.975C241.587 141.975 227.006 147.059 226.751 148.204C226.497 149.349 227.901 152.428 230.471 151.858C230.471 151.858 229.028 153.612 229.629 155.547C230.23 157.481 231.559 157.846 234.016 157.394C234.016 157.394 232.349 159.89 233.656 161.162C234.963 162.434 236.998 162.114 236.998 162.114C236.998 162.114 237.025 165.154 238.63 165.417C240.236 165.68 244.71 165.369 246.382 164.855L254.87 162.223L260.371 160.991L261.34 145.751Z" fill="#FFBF9D"/>
<path d="M238.117 149.612C238.165 149.778 236.485 150.41 234.371 151.029C232.257 151.647 230.493 152.007 230.445 151.84C230.397 151.673 232.077 151.037 234.191 150.423C236.305 149.809 238.069 149.445 238.117 149.612Z" fill="#A4B3D6"/>
<path d="M240.262 155.608C240.311 155.775 238.982 156.323 237.288 156.837C235.595 157.35 234.178 157.622 234.126 157.455C234.073 157.288 235.411 156.74 237.104 156.231C238.797 155.722 240.214 155.446 240.262 155.608Z" fill="#A4B3D6"/>
<path d="M242.188 160.596C242.219 160.785 241.008 161.035 239.587 161.394C238.166 161.754 237.056 162.272 236.955 162.092C236.854 161.912 237.898 161.188 239.412 160.776C240.925 160.363 242.166 160.442 242.188 160.596Z" fill="#A4B3D6"/>
<path d="M243.78 141.47C243.828 141.641 242.174 142.242 240.126 142.948C238.077 143.655 236.406 144.194 236.336 144.032C236.266 143.87 237.854 143.062 239.924 142.352C241.995 141.641 243.736 141.303 243.78 141.47Z" fill="#A4B3D6"/>
<path d="M258.962 144.646L286.287 154.542L284.69 173.295L254.606 161.166L258.962 144.646Z" fill="#FFBF9D"/>
<path d="M294.021 111.829C294.021 111.829 297.583 115.51 299.658 122.129C301.733 128.749 311.502 156.81 311.265 165.737C311.006 174.971 304.79 181.56 291.13 177.91C282.98 175.717 273.268 172.207 273.268 172.207L280.172 149.511L285.572 150.901L276.851 134.53L294.021 111.829Z" fill="#B8B0E2"/>
<path d="M287.765 122.555C287.818 122.594 284.037 127.977 279.325 134.579C274.614 141.181 270.758 146.515 270.706 146.471C270.653 146.427 274.434 141.049 279.146 134.447C283.857 127.845 287.717 122.52 287.765 122.555Z" fill="#263238"/>
<path d="M298.223 153.972C298.223 153.972 297.986 153.858 297.561 153.661C296.955 153.39 296.329 153.169 295.688 152.998C294.876 152.774 293.893 152.56 292.801 152.327L289.257 151.546C286.743 150.985 284.466 150.463 282.826 150.072L280.883 149.599C280.642 149.552 280.405 149.485 280.176 149.397C280.42 149.417 280.662 149.456 280.9 149.515L282.861 149.914C284.515 150.265 286.809 150.761 289.309 151.322L292.849 152.125C293.937 152.371 294.92 152.599 295.731 152.845C296.376 153.032 297.002 153.278 297.6 153.582C297.762 153.664 297.919 153.756 298.069 153.858C298.125 153.889 298.177 153.927 298.223 153.972Z" fill="#263238"/>
<g opacity="0.3">
<path d="M305.207 154.972C305.12 154.434 304.903 153.924 304.577 153.487C304.25 153.05 303.822 152.699 303.33 152.463C302.342 151.996 301.278 151.711 300.189 151.621C295.28 150.945 290.314 150.743 285.362 150.572L285.8 150.77C291.919 151.901 297.908 153.647 303.676 155.981C303.992 156.156 304.364 156.2 304.711 156.104C304.9 155.988 305.048 155.818 305.136 155.616C305.225 155.413 305.25 155.189 305.207 154.972Z" fill="black"/>
</g>
<g opacity="0.3">
<path d="M192.636 67.9583C188.03 67.1731 182.521 68.511 177.915 67.7258C177.23 67.6118 176.476 67.5021 175.87 67.853C175.142 68.2698 174.892 69.1997 174.857 70.0464C174.839 71.208 175.063 72.3606 175.516 73.4303C175.97 74.5 176.642 75.4631 177.489 76.2579C179.214 77.8348 181.368 78.8639 183.679 79.2145C185.517 79.526 187.495 79.4645 189.131 78.5784C192.009 77.0168 193.391 71.1211 192.636 67.9583Z" fill="black"/>
</g>
<path d="M174.761 76.3851C174.761 76.3851 171.966 73.1083 171.563 71.5992C171.295 70.5991 171.427 67.796 171.563 66.0194C171.594 65.4207 171.799 64.8442 172.154 64.3609C172.509 63.8776 172.997 63.5087 173.559 63.2997C173.723 63.218 173.907 63.1826 174.09 63.1973C174.273 63.212 174.449 63.2762 174.598 63.383C174.978 62.8684 175.404 62.3897 175.871 61.953C176.967 60.83 177.489 60.0711 179.902 60.7686C179.902 60.7686 181.679 58.8955 182.701 59.0358C183.387 59.1373 184.065 59.2838 184.732 59.4745C184.732 59.4745 188.623 59.3078 189.421 60.5448C189.874 61.1033 190.486 61.5116 191.176 61.7161C191.784 61.9309 192.344 62.2655 192.821 62.7003C193.297 63.135 193.682 63.6611 193.952 64.2472C194.406 65.3238 194.669 66.4713 194.729 67.6381L190.781 67.796C190.781 67.796 191.062 76.8808 190.066 77.6134C189.07 78.3459 188.693 78.0827 188.693 78.0827C188.693 78.0827 187.934 80.2147 184.973 78.6399C184.973 78.6399 182.516 79.3812 181.464 78.3679C180.411 77.3546 176.559 67.6205 176.559 67.6205L176.669 72.4459C176.669 72.4459 178.7 75.5736 177.704 76.3061C176.708 77.0387 174.761 76.3851 174.761 76.3851Z" fill="#FFBF9D"/>
<path d="M179.691 64.0717C179.784 64.2539 179.859 64.4449 179.915 64.642L180.45 66.2212C180.888 67.5372 181.489 69.4147 182.13 71.4633C182.77 73.5118 183.306 75.4113 183.911 76.6571C184.144 77.1589 184.413 77.6428 184.718 78.1047C184.933 78.4337 185.069 78.6004 185.056 78.6135C185.043 78.6267 185.008 78.5828 184.937 78.5039C184.834 78.3938 184.738 78.2781 184.648 78.1573C184.311 77.7095 184.017 77.2307 183.771 76.7273C183.117 75.4595 182.569 73.5776 181.919 71.5334C181.27 69.4893 180.704 67.6205 180.301 66.2694C180.116 65.6246 179.958 65.0894 179.836 64.6683C179.769 64.4743 179.721 64.2746 179.691 64.0717Z" fill="#A4B3D6"/>
<path d="M184.547 62.9487C184.635 63.1369 184.703 63.334 184.749 63.5365L185.219 65.164C185.6 66.537 186.096 68.4408 186.675 70.5464C187.254 72.652 187.723 74.5646 188.065 75.9508C188.228 76.6088 188.359 77.1615 188.465 77.5914C188.524 77.7917 188.562 77.9975 188.579 78.2056C188.496 78.0154 188.428 77.8188 188.377 77.6177C188.254 77.1791 188.101 76.6439 187.912 75.9903C187.526 74.6173 187.008 72.7135 186.456 70.6079C185.903 68.5023 185.407 66.5897 185.061 65.2035C184.903 64.5411 184.767 63.9928 184.666 63.5585C184.607 63.3595 184.567 63.1553 184.547 62.9487Z" fill="#A4B3D6"/>
</svg>
