<svg width="49" height="49" viewBox="0 0 49 49" fill="none" xmlns="http://www.w3.org/2000/svg">
<path d="M22.8462 32.6462C23.2954 33.0954 23.8573 33.3102 24.5318 33.2906C25.2064 33.271 25.7675 33.0358 26.215 32.585C26.6642 32.1358 26.8887 31.5642 26.8887 30.87C26.8887 30.1758 26.6642 29.6042 26.215 29.155L24.01 26.95H31.9112C32.6054 26.95 33.1771 26.7156 33.6262 26.2468C34.0754 25.7781 34.3 25.1958 34.3 24.5C34.3 23.8058 34.0648 23.2244 33.5944 22.7556C33.124 22.2868 32.5425 22.0516 31.85 22.05H24.01L26.2762 19.7837C26.7254 19.3346 26.9402 18.7727 26.9206 18.0981C26.901 17.4236 26.6658 16.8625 26.215 16.415C25.7658 15.9658 25.1942 15.7412 24.5 15.7412C23.8058 15.7412 23.2342 15.9658 22.785 16.415L16.415 22.785C15.925 23.275 15.68 23.8467 15.68 24.5C15.68 25.1533 15.925 25.725 16.415 26.215L22.8462 32.6462ZM24.5 49C21.1108 49 17.9258 48.3565 14.945 47.0694C11.9642 45.7823 9.37125 44.0371 7.16625 41.8337C4.96125 39.6287 3.21603 37.0358 1.9306 34.055C0.645167 31.0742 0.00163333 27.8892 0 24.5C0 21.1108 0.643534 17.9258 1.9306 14.945C3.21767 11.9642 4.96288 9.37125 7.16625 7.16625C9.37125 4.96125 11.9642 3.21603 14.945 1.9306C17.9258 0.645167 21.1108 0.00163333 24.5 0C27.8892 0 31.0742 0.643534 34.055 1.9306C37.0358 3.21767 39.6287 4.96288 41.8337 7.16625C44.0387 9.37125 45.7848 11.9642 47.0718 14.945C48.3589 17.9258 49.0016 21.1108 49 24.5C49 27.8892 48.3565 31.0742 47.0694 34.055C45.7823 37.0358 44.0371 39.6287 41.8337 41.8337C39.6287 44.0387 37.0358 45.7848 34.055 47.0718C31.0742 48.3589 27.8892 49.0016 24.5 49ZM24.5 44.1C29.9308 44.1 34.5556 42.1914 38.3743 38.3743C42.1931 34.5572 44.1016 29.9325 44.1 24.5C44.1 19.0692 42.1914 14.4444 38.3743 10.6256C34.5572 6.80692 29.9325 4.89837 24.5 4.9C19.0692 4.9 14.4444 6.80855 10.6256 10.6256C6.80692 14.4427 4.89837 19.0675 4.9 24.5C4.9 29.9308 6.80855 34.5556 10.6256 38.3743C14.4427 42.1931 19.0675 44.1016 24.5 44.1Z" fill="black"/>
</svg>
